<svg xmlns="http://www.w3.org/2000/svg" xmlns:xlink="http://www.w3.org/1999/xlink" version="1.1" id="Layer_1" x="0px" y="0px" width="100px" height="100px" viewBox="5.0 -10.0 100.0 135.0" enable-background="new 0 0 100 100" xml:space="preserve">
<path fill="#bababa" d="M92.857,18.857V26h-7.143v-7.143H92.857z M92.857,33.143v7.143h-7.143v-7.143H92.857z M92.857,47.429v7.143h-7.143v-7.143  H92.857z M92.857,61.714v7.143h-7.143v-7.143H92.857z M92.857,76v7.143h-7.143V76H92.857z M78.571,18.857v64.286H21.429V18.857  H78.571z M14.286,18.857V26H7.143v-7.143H14.286z M14.286,33.143v7.143H7.143v-7.143H14.286z M14.286,47.429v7.143H7.143v-7.143  H14.286z M14.286,61.714v7.143H7.143v-7.143H14.286z M14.286,76v7.143H7.143V76H14.286z M96.429,11.714H3.571  C0,11.714,0,11.714,0,15.286v71.429c0,3.571,0,3.571,3.571,3.571h92.857c3.571,0,3.571,0,3.571-3.571V15.286  C100,11.714,100,11.714,96.429,11.714z"/></svg>